<svg xmlns="http://www.w3.org/2000/svg" height="800" width="1200" viewBox="-7.234875 -7.7136 62.70225 46.2816"><g fill="#03499a"><path d="M47.8758 21.9291V18.158h-7.5801l-7.485 3.7518zm-44.567 6.7036l.7627-1.42c.0289-.0536.0864-.169.0864-.2113 0-.0649-.0575-.0727-.211-.092-.0385-.004-.0723-.0117-.0723-.0576 0-.0497.0674-.0497.1203-.0497.0575 0 .23.0155.3598.0155.168 0 .283-.0155.3264-.0155.0236 0 .086 0 .086.0536 0 .0501-.0574.0536-.1823.0653-.1055.0113-.168.0155-.3355.3338l-1.027 1.9346c-.024.0536-.043.0766-.0814.0766-.0434 0-.072-.0191-.1105-.0998l-.5083-.9825-.5807.9712c-.0529.0921-.0765.1111-.115.1111-.048 0-.0769-.038-.1104-.096L.574 27.1437c-.1054-.192-.163-.2113-.2589-.2226-.1584-.0191-.1774-.0191-.1774-.0653 0-.0536.072-.0536.1054-.0536.091 0 .288.0155.4752.0155.2156 0 .465-.0155.5034-.0155.053 0 .12 0 .12.0536 0 .05-.0624.0575-.144.0575-.024.004-.11.008-.11.0579 0 .0459.038.111.0476.1263l.8876 1.566.3743-.5793c.0145-.0233.0194-.0346.0194-.0462 0-.0155-.01-.0385-.024-.0614l-.4657-.8216c-.1005-.1764-.144-.2226-.2254-.234-.1295-.0151-.1775-.019-.1775-.0652 0-.0536.0624-.0536.101-.0536.072 0 .4268.0155.5083.0155.067 0 .3933-.0155.4653-.0155.0145 0 .0769 0 .0769.0497 0 .0575-.1249.0614-.1729.0614-.067.004-.1055.0155-.1055.0462 0 .019.024.0882.048.134l.283.4953.2833-.4759c.019-.0384.0526-.0959.0526-.1266 0-.0462-.0526-.0692-.158-.0843-.0484-.004-.077-.0155-.077-.054 0-.042.0385-.046.0815-.046.0575 0 .2639.0156.3934.0156.1104 0 .2208-.0155.2638-.0155.048 0 .1105 0 .1105.0536 0 .042-.0575.0575-.1729.0653-.144.004-.1824.0229-.3355.2646l-.3217.503c-.0141.0191-.0141.0385-.0141.0497 0 .0155.014.0385.038.0847zm5.565-1.7539c-.6717 0-1.022.495-1.022 1.04 0 .622.4562 1.2128 1.1035 1.2128.6717 0 1.022-.5948 1.022-1.1515 0-.4564-.3408-1.1013-1.1035-1.1013m.043 2.3526c-.8392 0-1.6408-.4988-1.6408-1.2319 0-.6907.7247-1.2206 1.6553-1.2206.8971 0 1.6217.5257 1.6217 1.186 0 .7444-.8206 1.2665-1.6362 1.2665m5.2342-1.4354c0 .1344 0 .1422.24.1422.1728 0 .6476 0 .6476-.4798 0-.1383-.067-.549-.6621-.549-.2205 0-.2255.0922-.2255.242zm-.5132-.6064c0-.1574 0-.261-.2353-.2724-.1055-.004-.1726-.008-.1726-.0617 0-.0536.019-.0536.1775-.0536.048 0 .2833.0155.3408.0155.1294 0 .7673-.0155.9112-.0155.8495 0 .9215.4685.9215.6026 0 .449-.4943.5411-.6576.5683.0624.0307.12.0536.2303.2148l.4654.66c.0959.1345.1633.2304.2973.2456.1584.0155.1969.0194.1969.0692 0 .0423-.048.0462-.0815.0462-.0624 0-.3743-.0155-.4463-.0155-.0385 0-.2159.0155-.2589.0155-.0864 0-.1055-.0346-.1584-.1153l-.5803-.875c-.1059-.165-.1298-.1802-.3457-.1802-.0815 0-.091.0229-.091.0882v.6907c0 .1613 0 .265.2398.2763.1055.004.173.008.173.0653 0 .0536-.0625.05-.101.05-.0914 0-.5567-.0154-.5757-.0154-.0815 0-.4703.0155-.5567.0155-.0381 0-.1005.004-.1005-.054 0-.0536.072-.0575.1725-.0614.2353-.0152.2353-.115.2353-.2763zm5.3395.004c0-.1574 0-.2611-.2448-.2724-.1006-.004-.168-.008-.168-.0656 0-.0536.0624-.0536.101-.0536.0814 0 .3358.0155.5852.0155.3023 0 .4703-.0155.5613-.0155.0385 0 .1009 0 .1009.0536 0 .0578-.072.0617-.168.0656-.2448.0113-.2543.115-.2543.2607v1.5314c0 .2417.0864.3722.3838.3722.2304 0 .5708-.0381.8301-.422.019-.031.0385-.0461.067-.0461.048 0 .0624.0307.0624.0614s-.0624.3722-.067.4374c-.01.073-.0339.0924-.1203.0924-.043 0-.0381-.0155-1.1271-.0155-.811 0-.811.0155-.859.0155-.0335 0-.096 0-.096-.054 0-.0536.0723-.0575.1679-.0653.2448-.0113.2448-.115.2448-.2762zm5.2916 1.5389c0 .2455.0815.38.4508.38.6382 0 1.2044-.472 1.2044-1.0862 0-.4375-.3214-1.1243-1.3385-1.1243-.2878 0-.3167.092-.3167.3069zm-.5133-1.5466c0-.1573-.0575-.2113-.1535-.2113-.0289 0-.168.0307-.2014.0307-.0434 0-.0674-.0113-.0674-.0423 0-.1072.8011-.1608 1.2474-.1608.6188 0 .9641.0765 1.2714.2455.3933.2148.6378.5835.6378.9557 0 .4106-.3549 1.205-1.6069 1.205-.1393 0-.758-.0154-.878-.0154-.0864 0-.5423.0155-.5659.0155-.0339 0-.0963 0-.0963-.0536 0-.058.072-.0614.168-.0653.2448-.0116.2448-.1154.2448-.2728zm8.4195 1.4468l.7631-1.42c.0286-.0536.0861-.169.0861-.2113 0-.0649-.0575-.0727-.211-.092-.0385-.004-.072-.0117-.072-.0576 0-.0497.067-.0497.12-.0497.0575 0 .23.0155.3598.0155.168 0 .283-.0155.3263-.0155.024 0 .0861 0 .0861.0536 0 .0501-.0575.0536-.1823.0653-.1055.0113-.1676.0155-.3355.3338l-1.027 1.9346c-.024.0536-.043.0766-.0815.0766-.043 0-.072-.0191-.1104-.0998l-.5084-.9825-.5806.9712c-.0526.0921-.0765.1111-.115.1111-.048 0-.077-.038-.1104-.096l-1.142-2.0263c-.1055-.192-.163-.2113-.259-.2226-.1583-.0191-.1774-.0191-.1774-.0653 0-.0536.072-.0536.1055-.0536.0914 0 .2879.0155.4748.0155.216 0 .4653-.0155.5038-.0155.0529 0 .12 0 .12.0536 0 .05-.0624.0575-.144.0575-.024.004-.11.008-.11.0579 0 .0459.038.111.048.1263l.8872 1.566.3743-.5793c.0145-.0233.0194-.0346.0194-.0462 0-.0155-.01-.0385-.024-.0614l-.4653-.8216c-.101-.1764-.144-.2226-.2255-.234-.1298-.0151-.1778-.019-.1778-.0652 0-.0536.0624-.0536.101-.0536.072 0 .4268.0155.5083.0155.067 0 .3933-.0155.4656-.0155.0141 0 .0765 0 .0765.0497 0 .0575-.1248.0614-.1728.0614-.067.004-.1055.0155-.1055.0462 0 .019.024.0882.048.134l.2833.4953.283-.4759c.019-.0384.0525-.0959.0525-.1266 0-.0462-.0526-.0692-.158-.0843-.048-.004-.077-.0155-.077-.054 0-.042.0386-.046.0816-.046.0579 0 .2639.0156.3933.0156.1104 0 .2209-.0155.2639-.0155.048 0 .1104 0 .1104.0536 0 .042-.0575.0575-.1725.0653-.144.004-.1824.0229-.3358.2646l-.3214.503c-.0145.0191-.0145.0385-.0145.0497 0 .0155.0145.0385.038.0847zm4.8168.1803c0 .1613 0 .265.2399.2766.1054.004.1728.007.1728.0653 0 .0536-.0624.0536-.1009.0536-.1009 0-.259-.0155-.5757-.0155-.2734 0-.5133.0155-.5613.0155-.0385 0-.1009 0-.1009-.0575 0-.054.072-.0578.1729-.0614.2399-.0155.2399-.1153.2399-.2727v-1.6196c0-.1612 0-.261-.24-.2762-.1054-.004-.1728-.008-.1728-.0653 0-.054.0624-.054.101-.054.1004 0 .2733.0155.5658.0155.3457 0 .4992-.0155.5711-.0155.0385 0 .101 0 .101.0579 0 .0536-.0724.0575-.173.0614-.2398.0152-.2398.115-.2398.2646zm3.9483-.0805c0 .2455.0815.38.4508.38.6382 0 1.2044-.472 1.2044-1.0862 0-.4375-.3214-1.1243-1.3385-1.1243-.2878 0-.3167.092-.3167.3069zm-.5133-1.5466c0-.1573-.0575-.2113-.1535-.2113-.0289 0-.168.0307-.2014.0307-.0434 0-.0674-.0113-.0674-.0423 0-.1072.8011-.1608 1.2474-.1608.6188 0 .9641.0765 1.2714.2455.3933.2148.6378.5835.6378.9557 0 .4106-.3549 1.205-1.6069 1.205-.1393 0-.7581-.0154-.878-.0154-.0864 0-.5423.0155-.5663.0155-.0335 0-.0959 0-.0959-.0536 0-.058.072-.0614.168-.0653.2448-.0116.2448-.1154.2448-.2728zm5.8721.0077c0-.1574 0-.2611-.24-.2724-.1055-.004-.1728-.008-.1728-.0656 0-.0536.0624-.0536.096-.0536.01 0 .0145.004.12.008.1057.004.3118.008.72.008h.23c.4942 0 .739-.004.8681-.008.125-.004.1299-.008.144-.008.0579 0 .0579.0307.0579.1193v.3527c0 .0194 0 .0653-.048.0653-.053 0-.0624-.0152-.149-.1573-.0574-.0998-.1724-.2455-.854-.2455-.2395 0-.259.0268-.259.2187v.5563c0 .1231 0 .1538.2784.1538.5324 0 .5758-.0847.6622-.2879.024-.0497.0476-.0575.0716-.0575.0289 0 .0529.0113.0529.0536 0 .0536-.0335.4491-.0335.5334 0 .0272.0145.1613.0145.192 0 .0229 0 .0766-.058.0766-.038 0-.067-.019-.091-.0921-.1005-.2953-.2349-.2992-.6282-.2992-.2304 0-.2688 0-.2688.1154v.6597c0 .2726.1009.315.5037.315.2113 0 .5084 0 .7197-.3263.0864-.1344.096-.1496.139-.1496.0434 0 .0578.0342.0578.0575 0 .05-.053.2956-.0674.4374-.005.073-.0526.1154-.192.1154-.2444 0-.5802-.004-.8586-.008-.2734-.004-.4988-.008-.5277-.008h-.0575c-.1969 0-.3168.004-.3934.008-.0769.004-.115.008-.1488.008-.0385 0-.101 0-.101-.058 0-.0535.0724-.0574.173-.0652.2398-.0113.2398-.115.2398-.2724zM.0363 25.006h47.7993m-.0003.0685H.036v-.1372h47.7993zM.0422 21.9262V18.155h7.5805l7.4845 3.7514zm.0073 8.8596h47.7993m-.0001.0686H.0494v-.1372h47.7993zm-1.2475-15.9882h.1408c.1608 0 .297-.0582.297-.2089 0-.1072-.078-.2145-.297-.2145a.9196.9196 0 00-.1408.01zm0 .6762h-.1947v-1.221c.102-.0147.1996-.0292.3457-.0292.1845 0 .3062.0388.3792.0924.0727.0536.1119.1361.1119.2529 0 .1605-.1073.2579-.2385.297v.01c.1072.0194.1799.1168.2046.2967.0289.1895.0578.2629.0776.3017h-.2046c-.029-.0388-.058-.1507-.0826-.3112-.029-.156-.1069-.2145-.2625-.2145h-.1362zm.2043-1.5614c-.4816 0-.8756.4135-.8756.924 0 .5207.394.9292.8802.9292.4868.005.8759-.4085.8759-.9243 0-.5154-.3891-.9289-.876-.9289zm.005-.1704c.5983 0 1.0752.4865 1.0752 1.0944 0 .618-.477 1.0996-1.0798 1.0996-.5983 0-1.0848-.4816-1.0848-1.0996 0-.6079.4865-1.0944 1.0848-1.0944zm-27.658 1.2877l-.109.0109c-.0455.0324-.0667.1128-.0635.1915.0229-.001.0452-.003.0677-.004.0628-.0229.0959-.1083.1047-.1986"/><path d="M38.7628 15.5684c-.9095 0-1.2273-.501-1.2273-1.19v-2.3269c0-.2194-.0109-.2402-.2081-.2402h-.3398c-.1206-.042-.1534-.2505-.0656-.3239.3394-.1146.6463-.3027.9095-.4695.1972-.1358.4713-.3546.811-.8139.077-.0416.2741-.0314.3288.052v.783c0 .1984.011.209.2078.209h.9754c.0547.0412.0875.104.0875.1978 0 .115-.0328.303-.1421.3655h-.9864c-.1422 0-.1535.0106-.1535.2403v1.5649c0 .5845 0 1.2315.7673 1.2315.1531 0 .3285-.073.46-.1562.1098.031.1754.146.1535.2712-.307.3133-.8985.6054-1.578.6054m-3.6336 0c-1.4799 0-2.2796-.9917-2.2796-2.129 0-1.3152.997-2.3379 2.3671-2.3379 1.1395 0 1.7533.6992 1.7533 1.5029 0 .1982-.055.3443-.3947.3443h-2.104c-.2519 0-.2738.0212-.2738.188 0 .7825.526 1.5448 1.5449 1.5448.3072 0 .7231-.0628 1.0195-.543.1203-.0211.2847.0625.2847.24-.4495.8872-1.2602 1.1899-1.9174 1.1899m-2.1304-.115c-.3394-.0205-.7997-.031-1.3257-.031-.4382 0-.8658.0106-1.1836.031-.0988-.0624-.0988-.3027-.0113-.3651l.1975-.0314c.2523-.0314.296-.115.296-.6886v-1.764c0-.407-.219-.7408-.7673-.7408-.3069 0-.5256.1355-.6135.2505-.0656.0727-.0875.1983-.0875.386v1.8683c0 .5736.0437.6572.3179.6992l.1753.0208c.0875.0624.0875.3026-.0113.365-.3393-.0204-.6904-.031-1.216-.031-.4604 0-.9102.0107-1.2933.031-.0988-.0623-.0988-.3026-.0113-.365l.1757-.0208c.3944-.042.4382-.1256.4382-.8562v-1.5755c0-.4177 0-.5324-.2082-.6682l-.1534-.0938c-.0766-.0624-.0766-.2501 0-.313.515-.1357 1.3042-.4176 1.6217-.6053.0882 0 .1534.031.1979.0938 0 .146-.0332.3965-.0332.47 0 .062.0219.0831.0547.0831.0328 0 .1425-.0519.2081-.0832.241-.1362.756-.4177 1.2601-.4177.9099 0 1.3702.5948 1.3702 1.3148v1.795c0 .7306.0437.8142.4382.8562l.1753.0208c.0875.0624.0875.3026-.0113.365m-7.8761.115c-1.3042 0-2.4546-.7097-2.4546-2.15-.0215-1.4923 1.227-2.3168 2.5202-2.3168 1.2937 0 2.4546.7518 2.4546 2.2229 0 1.5236-1.1722 2.244-2.5202 2.244m-2.9887-3.1725c-.1535 0-.285-.0628-.4272-.188-.2523-.1987-.3507-.209-.4167-.209-.1534 0-.2081.2297-.2081.6263v1.6072c0 .7306.0438.8139.4053.8453l.351.0314c.0875.0628.0875.3023-.0109.3655a34.8554 34.8554 0 00-1.4799-.0314c-.449 0-.9313.0102-1.2929.0314-.0473-.0303-.0713-.1013-.0744-.174-1.0442.053-1.9272.3722-1.9593.3722-.077-.0106-.121-.0628-.1316-.1252.022-.1252.0328-.2925.0328-.3757 0-.0628-.0547-.1044-.1203-.1044-.4276.2607-.8114.5009-1.4905.5009-.9098 0-1.2823-.4487-1.2823-1.336v-1.774c0-.5532-.0656-.5949-.3285-.6785l-.1425-.0416c-.0769-.0942-.0656-.2924.0434-.3655.362-.0102.7454-.0416 1.0633-.0938.3288-.0522.6466-.1774.6904-.1774.066 0 .1203.073.1312.1252-.0215.2607-.0325.5426-.0325.9187v1.7215c0 .5013.0766.9398.7779.9398.307 0 .4822-.1358.57-.1986.0766-.0522.1204-.2088.1204-.3133v-1.9723c0-.4174-.0766-.5112-.471-.5634l-.1538-.0208c-.0875-.073-.0766-.3235.055-.3655.3944-.0208.7888-.0624 1.1395-.104.3834-.0527.7122-.1673.7782-.1673.0434 0 .0988.0522.1094.1252-.0106.188-.0328.5324-.0328.9187v1.8993c0 .6156.0328.887.296.887.1425 0 .3065-.0414.4385-.0837.055.012.0829.1351.0716.2501l.0995-.01c.3616-.042.405-.1252.405-.8558v-1.5759c0-.4173 0-.5323-.2082-.6681l-.153-.0938c-.077-.0624-.077-.2505 0-.3133.504-.1354 1.26-.4173 1.5997-.6258.0875 0 .1535.031.1973.0938-.0222.2085-.0437.3549-.0437.4487 0 .073.0215.1044.1093.1256.296-.1778.6135-.5221 1.0742-.5221.2957 0 .6026.219.6026.616 0 .4797-.3507.6783-.7014.6783m-8.6875 3.0576c-.581-.0205-1.6326-.031-2.5315-.031H9.4907c-.5263 0-1.0632.0106-1.8852.031-.0875-.0624-.0875-.313 0-.3652l.515-.0727c.4932-.0632.5592-.1361.5592-1.0964v-3.8929c0-.9497-.066-1.0223-.5591-1.106l-.2738-.0522c-.0984-.0624-.0875-.3026.022-.365a39.701 39.701 0 001.5779.0313h2.323c.7013 0 1.3261-.0106 1.4686-.0314.0106.1669.0875.9183.1426 1.6175-.0441.1147-.296.1355-.4057.042-.1203-.3655-.2738-.6784-.4163-.8248-.2085-.1986-.537-.3235-1.0739-.3235h-.8766c-.3616 0-.3616.0208-.3616.4071v1.8267c0 .2921.0109.313.3065.313h.7564c.5697 0 .6904-.0735.8107-.5744l.0547-.2607c.0769-.0836.351-.0836.4057.0106-.022.3334-.0332.7098-.0332 1.1063 0 .3965.0113.7719.0332 1.106-.0547.0938-.3288.1044-.4057.0106l-.0547-.2611c-.1203-.501-.241-.5842-.8107-.5842h-.7564c-.2956 0-.3065.0102-.3065.3235v1.2418c0 .4801.0437.8142.1753.9916.1425.1877.3507.271 1.1508.271.9532 0 1.3257-.0307 1.9283-1.2104.0878-.115.362-.073.4056.0526-.0437.5426-.3069 1.3878-.4603 1.6693M23.6449 0L0 12.1176l23.7927 12.1179 24.088-12.118z"/><path d="M34.9275 12.4894h.4053c.1538 0 .3292-.0208.4498-.0938.0543-.031.0766-.1358.0766-.2399 0-.3446-.2081-.5743-.5807-.5743-.4607 0-.8551.4177-.8551.7518 0 .146.1535.1563.5041.1563m-9.8072-.9081c-.4819 0-.8763.47-.8763 1.6073 0 1.096.3613 1.8997.997 1.8997.6247 0 .8223-.6787.8223-1.6175-.0222-1.0128-.3182-1.8895-.943-1.8895"/></g></svg>